<?xml version="1.0" encoding="utf-8"?>
<!-- Generator: Adobe Illustrator 27.0.0, SVG Export Plug-In . SVG Version: 6.00 Build 0)  -->
<svg version="1.1" id="Layer_1" xmlns="http://www.w3.org/2000/svg" xmlns:xlink="http://www.w3.org/1999/xlink" x="0px" y="0px"
	 viewBox="0 0 191.7 83.8" style="enable-background:new 0 0 191.7 83.8;" xml:space="preserve">
<style type="text/css">
	.st0{opacity:0.4;fill-rule:evenodd;clip-rule:evenodd;fill:#FFFFFF;enable-background:new    ;}
	.st1{opacity:0.2;}
	.st2{fill:#FFFFFF;}
	.st3{fill-rule:evenodd;clip-rule:evenodd;fill:#FFFFFF;}
</style>
<g>
	<polygon class="st0" points="187.4,83.8 159.8,7 112.3,40 79.3,20.8 2.5,83.8 4.9,83.8 44.6,83.8 54.5,83.8 67.1,83.8 77.8,83.8 
		95.9,83.8 106.8,83.8 141.7,83.8 151.6,83.8 155.4,83.8 165.4,83.8 185.8,83.8 	"/>
	<polygon class="st1" points="189.1,76.6 162,0 112.1,34.6 78.9,15.3 0,80.1 0,83.8 2.5,83.8 79.3,20.8 112.3,40 159.8,7 
		187.4,83.8 189.1,83.8 191.7,83.8 	"/>
	<polygon class="st2" points="187.4,83.8 185.8,83.8 159,9.4 112.4,41.7 79.5,22.6 4.9,83.8 2.5,83.8 0,83.8 1.3,82.9 79.2,19 
		112.2,38.2 160.5,4.7 188.7,82.9 189.1,83.8 	"/>
	<polygon class="st2" points="160.5,4.7 112.2,38.2 79.2,19 1.3,82.9 0,83.8 2.5,83.8 4.9,83.8 79.5,22.6 112.4,41.7 159,9.4 
		185.8,83.8 187.4,83.8 189.1,83.8 188.7,82.9 	"/>
	<path class="st3" d="M64.1,56.5v11.2c-0.6,0-1.4,0-2.5,0.1s-2.1,0.4-3.2,0.9c-1,0.5-2,1.3-2.8,2.4s-1.2,2.7-1.2,4.7v7.9h-9.9V57.3
		h9.6v5.8h0.2c0.1-1.2,0.5-2.3,1.2-3.2c0.6-0.8,1.5-1.6,2.8-2.3S61.7,56.5,64.1,56.5z"/>
	<polygon class="st3" points="106.8,45.1 106.8,83.8 95.9,83.8 95.9,61 89.8,75.8 83.7,75.8 77.8,61 77.8,83.8 67.1,83.8 67.1,45.1 
		80.7,45.1 86.8,60.7 93.4,45.1 	"/>
	<path class="st3" d="M137.9,68.9c0-2.5-0.4-4.6-1.1-6.3c-0.7-1.7-1.7-3.1-3-4.1s-2.8-1.8-4.6-2.2s-3.7-0.6-5.8-0.6
		c-1.9,0-3.6,0.1-5.1,0.4c-1.5,0.3-2.8,0.5-3.9,0.9c-1.3,0.4-2.4,0.8-3.4,1.2l2.7,6.4c0.6-0.3,1.4-0.6,2.2-0.9
		c0.7-0.2,1.5-0.5,2.5-0.7s2.1-0.3,3.3-0.3c1.8,0,3.2,0.2,4.4,0.8s1.7,1.3,1.7,2.4v1.6c-0.6-0.4-1.2-0.7-2-1
		c-0.7-0.3-1.5-0.5-2.4-0.7c-0.9-0.2-1.9-0.3-3-0.3c-1.5,0-2.9,0.2-4.2,0.7c-1.3,0.5-2.4,1.2-3.4,2c-1,0.8-1.7,1.9-2.2,3.2
		c-0.5,1.2-0.8,2.5-0.8,4c0,1.3,0.2,2.5,0.7,3.6c0.5,1,1.2,1.9,2,2.7c0.9,0.7,1.9,1.3,3.1,1.6c1.2,0.4,2.5,0.5,3.9,0.5
		s2.7-0.2,3.7-0.5s1.8-0.6,2.5-1s1.3-0.9,1.8-1.5l0.5,3h10.1L137.9,68.9z M126.7,76.7c-0.8,0.6-1.8,0.9-3.1,0.9
		c-1.2,0-2.2-0.3-3.2-0.8c-0.9-0.6-1.3-1.4-1.3-2.4c0-0.9,0.4-1.7,1.2-2.4c0.8-0.6,1.8-1,3.1-1c0.6,0,1.1,0.1,1.7,0.2
		c0.5,0.2,1,0.4,1.4,0.6c0.4,0.3,0.8,0.6,1,1s0.4,0.9,0.4,1.4C128,75.3,127.6,76.1,126.7,76.7z"/>
	<rect x="141.7" y="57.3" class="st3" width="9.9" height="26.5"/>
	<rect x="141.7" y="45.1" class="st3" width="10.1" height="8.6"/>
	<rect x="155.4" y="45.1" class="st3" width="9.9" height="38.7"/>
</g>
</svg>
