<?xml version="1.0" encoding="UTF-8"?>
<svg width="17px" height="20px" viewBox="0 0 17 20" version="1.1" xmlns="http://www.w3.org/2000/svg" xmlns:xlink="http://www.w3.org/1999/xlink">
    <title>refresh</title>
    <g id="rMail-Menu" stroke="none" stroke-width="1" fill="none" fill-rule="evenodd">
        <g id="Default" transform="translate(-296.000000, -115.000000)" fill="#FFFFFF">
            <g id="refresh" transform="translate(296.000000, 115.000000)">
                <path d="M7.72727273,5.43222597 C4.67785015,5.81076296 2.31818182,8.40029411 2.31818182,11.5384615 C2.31818182,14.9371369 5.08587609,17.6923077 8.5,17.6923077 C11.9141239,17.6923077 14.6818182,14.9371369 14.6818182,11.5384615 C14.6818182,9.93148262 14.0630626,8.46836787 13.0497829,7.37233403 L14.9111836,5.98260051 C16.2121449,7.46903633 17,9.41215855 17,11.5384615 C17,16.2116402 13.1944204,20 8.5,20 C3.80557963,20 0,16.2116402 0,11.5384615 C0,7.12458265 3.39497726,3.50005523 7.72727273,3.1114177 L7.72727273,0 L13.9090909,4.61538462 L7.72727273,9.23076923 L7.72727273,5.43222597 L7.72727273,5.43222597 Z"></path>
            </g>
        </g>
    </g>
</svg>